<svg xmlns="http://www.w3.org/2000/svg" viewBox="0 0 32 32">
  <defs>
    <radialGradient id="g" cx="45%" cy="32%" r="62%" fx="45%" fy="32%">
      <stop offset="0%"   stop-color="#9333ea"/>
      <stop offset="35%"  stop-color="#4f46e5"/>
      <stop offset="70%"  stop-color="#2563eb"/>
      <stop offset="100%" stop-color="#0ea5e9"/>
    </radialGradient>
    <!-- Bottom rim highlight to match the cyan edge on the logo -->
    <radialGradient id="rim" cx="50%" cy="100%" r="55%" fx="50%" fy="100%">
      <stop offset="0%"  stop-color="#38bdf8" stop-opacity="0.7"/>
      <stop offset="100%" stop-color="#38bdf8" stop-opacity="0"/>
    </radialGradient>
  </defs>
  <!-- Organic 4-lobed blob shape matching the logo silhouette -->
  <path fill="url(#g)" d="
    M 16,2.5
    C 19.5,2   23.5,3.5  26,6.5
    C 28.5,9.5 28,12.5   29,15.5
    C 30,18.5  30,21     27.5,24
    C 25,27    21.5,30   17,29.5
    C 12.5,29  9,27.5    6.5,25
    C 4,22.5   2,20      2,16.5
    C 2,13     3.5,9.5   6,7
    C 8.5,4.5  12.5,3    16,2.5 Z
  "/>
  <!-- Cyan rim highlight at the bottom, matching logo -->
  <path fill="url(#rim)" d="
    M 16,2.5
    C 19.5,2   23.5,3.5  26,6.5
    C 28.5,9.5 28,12.5   29,15.5
    C 30,18.5  30,21     27.5,24
    C 25,27    21.5,30   17,29.5
    C 12.5,29  9,27.5    6.5,25
    C 4,22.5   2,20      2,16.5
    C 2,13     3.5,9.5   6,7
    C 8.5,4.5  12.5,3    16,2.5 Z
  "/>
</svg>
